<svg width="40" height="41" viewBox="0 0 40 41" fill="none" xmlns="http://www.w3.org/2000/svg">
<mask id="mask0_364_244" style="mask-type:alpha" maskUnits="userSpaceOnUse" x="0" y="0" width="40" height="41">
<rect y="0.5" width="40" height="40" fill="#D9D9D9"/>
</mask>
<g mask="url(#mask0_364_244)">
<path d="M15.792 29.75C15.6254 29.75 15.4587 29.7223 15.292 29.667C15.1254 29.611 14.9724 29.5137 14.833 29.375L7.41703 21.958C7.13903 21.6807 7.00703 21.3407 7.02103 20.938C7.03503 20.5347 7.16703 20.1943 7.41703 19.917C7.69436 19.667 8.02069 19.542 8.39603 19.542C8.77069 19.542 9.09703 19.667 9.37503 19.917L15.792 26.375L30.583 11.583C30.861 11.3057 31.1944 11.167 31.583 11.167C31.9724 11.167 32.3057 11.3057 32.583 11.583C32.861 11.833 33 12.1597 33 12.563C33 12.9657 32.861 13.292 32.583 13.542L16.792 29.375C16.6254 29.5137 16.4654 29.611 16.312 29.667C16.1594 29.7223 15.986 29.75 15.792 29.75Z" fill="#70E5D0"/>
</g>
</svg>
